<svg width="128" height="128" viewBox="0 0 128 128"
    xmlns="http://www.w3.org/2000/svg">
    <!-- Background circle with gradient -->
    <defs>
        <linearGradient id="bgGradient" x1="0%" y1="0%" x2="100%" y2="100%">
            <stop offset="0%" style="stop-color:#239b56;stop-opacity:1" />
            <stop offset="100%" style="stop-color:#1e8449;stop-opacity:1" />
        </linearGradient>
        <linearGradient id="nodeGradient" x1="0%" y1="0%" x2="100%" y2="100%">
            <stop offset="0%" style="stop-color:#3498db;stop-opacity:1" />
            <stop offset="100%" style="stop-color:#2980b9;stop-opacity:1" />
        </linearGradient>
        <linearGradient id="centralGradient" x1="0%" y1="0%" x2="100%" y2="100%">
            <stop offset="0%" style="stop-color:#e74c3c;stop-opacity:1" />
            <stop offset="100%" style="stop-color:#c0392b;stop-opacity:1" />
        </linearGradient>
    </defs>

    <!-- Background -->
    <circle cx="64" cy="64" r="60" fill="url(#bgGradient)" stroke="#148f77" stroke-width="2"/>

    <!-- C# Symbol in background -->
    <text x="64" y="35" font-family="Arial, sans-serif" font-size="24" font-weight="bold" fill="#ffffff" text-anchor="middle" opacity="0.3">C#</text>

    <!-- Dependency nodes network -->
    <!-- Central node (main class/namespace) -->
    <circle cx="64" cy="64" r="8" fill="url(#centralGradient)" stroke="#ffffff" stroke-width="2"/>

    <!-- Outer dependency nodes -->
    <circle cx="40" cy="45" r="6" fill="url(#nodeGradient)" stroke="#ffffff" stroke-width="1.5"/>
    <circle cx="88" cy="45" r="6" fill="url(#nodeGradient)" stroke="#ffffff" stroke-width="1.5"/>
    <circle cx="95" cy="75" r="6" fill="url(#nodeGradient)" stroke="#ffffff" stroke-width="1.5"/>
    <circle cx="88" cy="95" r="6" fill="url(#nodeGradient)" stroke="#ffffff" stroke-width="1.5"/>
    <circle cx="40" cy="95" r="6" fill="url(#nodeGradient)" stroke="#ffffff" stroke-width="1.5"/>
    <circle cx="33" cy="75" r="6" fill="url(#nodeGradient)" stroke="#ffffff" stroke-width="1.5"/>

    <!-- Connection lines (dependencies) -->
    <line x1="64" y1="64" x2="40" y2="45" stroke="#ffffff" stroke-width="2" opacity="0.8"/>
    <line x1="64" y1="64" x2="88" y2="45" stroke="#ffffff" stroke-width="2" opacity="0.8"/>
    <line x1="64" y1="64" x2="95" y2="75" stroke="#ffffff" stroke-width="2" opacity="0.8"/>
    <line x1="64" y1="64" x2="88" y2="95" stroke="#ffffff" stroke-width="2" opacity="0.8"/>
    <line x1="64" y1="64" x2="40" y2="95" stroke="#ffffff" stroke-width="2" opacity="0.8"/>
    <line x1="64" y1="64" x2="33" y2="75" stroke="#ffffff" stroke-width="2" opacity="0.8"/>

    <!-- Circular dependency indicator (curved arrow) -->
    <path d="M 40 45 Q 25 30 40 15 Q 55 30 40 45" stroke="#f39c12" stroke-width="2.5" fill="none" opacity="0.9"/>
    <polygon points="42,43 38,47 35,42" fill="#f39c12" opacity="0.9"/>

    <!-- Monitoring/analysis symbol (magnifying glass) -->
    <circle cx="85" cy="25" r="8" fill="none" stroke="#ffffff" stroke-width="2" opacity="0.7"/>
    <line x1="91" y1="31" x2="97" y2="37" stroke="#ffffff" stroke-width="2" opacity="0.7"/>
</svg>